<svg width="95" height="86" viewBox="0 0 95 86" fill="none" xmlns="http://www.w3.org/2000/svg">
<path d="M46.5184 32.1528C46.9199 31.3353 48.0801 31.3353 48.4816 32.1528L51.4963 38.2911C51.6557 38.6157 51.9639 38.8407 52.3205 38.8928L59.0616 39.8771C59.9594 40.0082 60.3179 41.1169 59.6682 41.7532L54.7903 46.5312C54.5323 46.7839 54.4146 47.148 54.4755 47.5048L55.627 54.2514C55.7804 55.1499 54.8419 55.8351 54.0388 55.4109L48.0094 52.2256C47.6905 52.0571 47.3095 52.0571 46.9906 52.2256L40.9612 55.4109C40.1582 55.8351 39.2196 55.1499 39.373 54.2514L40.5245 47.5048C40.5854 47.148 40.4677 46.7839 40.2097 46.5312L35.3318 41.7532C34.6821 41.1169 35.0406 40.0082 35.9384 39.8771L42.6795 38.8928C43.0361 38.8407 43.3443 38.6157 43.5037 38.2911L46.5184 32.1528Z" fill="#E1FF00"/>
<path d="M11.5184 0.613141C11.9199 -0.204379 13.0801 -0.204381 13.4816 0.61314L16.4963 6.75139C16.6557 7.07603 16.9639 7.30104 17.3205 7.3531L24.0616 8.33741C24.9594 8.4685 25.3179 9.57721 24.6682 10.2136L19.7903 14.9915C19.5323 15.2442 19.4146 15.6083 19.4755 15.9651L20.627 22.7117C20.7804 23.6102 19.8419 24.2954 19.0388 23.8712L13.0094 20.6859C12.6905 20.5174 12.3095 20.5174 11.9906 20.6859L5.96118 23.8712C5.15815 24.2954 4.2196 23.6102 4.37297 22.7117L5.52449 15.9651C5.58539 15.6083 5.46767 15.2442 5.20969 14.9915L0.331754 10.2136C-0.317912 9.57721 0.0405811 8.4685 0.938397 8.33741L7.67953 7.3531C8.03606 7.30104 8.34426 7.07603 8.5037 6.75139L11.5184 0.613141Z" fill="#E1FF00"/>
<path d="M11.5184 61.3929C11.9199 60.5754 13.0801 60.5754 13.4816 61.3929L16.4963 67.5312C16.6557 67.8558 16.9639 68.0808 17.3205 68.1329L24.0616 69.1172C24.9594 69.2483 25.3179 70.357 24.6682 70.9933L19.7903 75.7713C19.5323 76.024 19.4146 76.3881 19.4755 76.7449L20.627 83.4915C20.7804 84.39 19.8419 85.0752 19.0388 84.651L13.0094 81.4657C12.6905 81.2972 12.3095 81.2972 11.9906 81.4657L5.96118 84.651C5.15815 85.0752 4.2196 84.39 4.37297 83.4915L5.52449 76.7449C5.58539 76.3881 5.46767 76.024 5.20969 75.7713L0.331754 70.9933C-0.317912 70.357 0.0405811 69.2483 0.938397 69.1172L7.67953 68.1329C8.03606 68.0808 8.34426 67.8558 8.5037 67.5312L11.5184 61.3929Z" fill="#E1FF00"/>
<path d="M81.5184 62.1528C81.9199 61.3353 83.0801 61.3353 83.4816 62.1528L86.4963 68.2911C86.6557 68.6157 86.9639 68.8407 87.3205 68.8928L94.0616 69.8771C94.9594 70.0082 95.3179 71.1169 94.6682 71.7532L89.7903 76.5312C89.5323 76.7839 89.4146 77.148 89.4755 77.5048L90.627 84.2514C90.7804 85.1499 89.8419 85.8351 89.0388 85.4109L83.0094 82.2256C82.6905 82.0571 82.3095 82.0571 81.9906 82.2256L75.9612 85.4109C75.1582 85.8351 74.2196 85.1499 74.373 84.2514L75.5245 77.5048C75.5854 77.148 75.4677 76.7839 75.2097 76.5312L70.3318 71.7532C69.6821 71.1169 70.0406 70.0082 70.9384 69.8771L77.6795 68.8928C78.0361 68.8407 78.3443 68.6157 78.5037 68.2911L81.5184 62.1528Z" fill="#E1FF00"/>
<path d="M81.5184 0.613141C81.9199 -0.204379 83.0801 -0.204381 83.4816 0.61314L86.4963 6.75139C86.6557 7.07603 86.9639 7.30104 87.3205 7.3531L94.0616 8.33741C94.9594 8.4685 95.3179 9.57721 94.6682 10.2136L89.7903 14.9915C89.5323 15.2442 89.4146 15.6083 89.4755 15.9651L90.627 22.7117C90.7804 23.6102 89.8419 24.2954 89.0388 23.8712L83.0094 20.6859C82.6905 20.5174 82.3095 20.5174 81.9906 20.6859L75.9612 23.8712C75.1582 24.2954 74.2196 23.6102 74.373 22.7117L75.5245 15.9651C75.5854 15.6083 75.4677 15.2442 75.2097 14.9915L70.3318 10.2136C69.6821 9.57721 70.0406 8.4685 70.9384 8.33741L77.6795 7.3531C78.0361 7.30104 78.3443 7.07603 78.5037 6.75139L81.5184 0.613141Z" fill="#E1FF00"/>
</svg>
