<svg width="448" height="106" viewBox="0 0 448 106" fill="none" xmlns="http://www.w3.org/2000/svg">
<path d="M398.865 40.7528C399.267 39.9353 400.427 39.9353 400.828 40.7528L403.843 46.891C404.003 47.2157 404.311 47.4407 404.667 47.4927L411.409 48.4771C412.306 48.6082 412.665 49.7169 412.015 50.3532L407.137 55.1312C406.879 55.3839 406.762 55.7479 406.822 56.1047L407.974 62.8513C408.127 63.7499 407.189 64.4351 406.386 64.0109L400.356 60.8256C400.037 60.6571 399.656 60.6571 399.338 60.8256L393.308 64.0109C392.505 64.4351 391.567 63.7499 391.72 62.8513L392.871 56.1048C392.932 55.7479 392.815 55.3839 392.557 55.1312L387.679 50.3532C387.029 49.7169 387.388 48.6082 388.285 48.4771L395.026 47.4927C395.383 47.4407 395.691 47.2157 395.851 46.891L398.865 40.7528Z" fill="#E1FF00"/>
<path d="M363.865 9.21312C364.267 8.3956 365.427 8.3956 365.828 9.21312L368.843 15.3514C369.003 15.676 369.311 15.901 369.667 15.9531L376.409 16.9374C377.306 17.0685 377.665 18.1772 377.015 18.8135L372.137 23.5915C371.879 23.8442 371.762 24.2083 371.822 24.5651L372.974 31.3117C373.127 32.2102 372.189 32.8954 371.386 32.4712L365.356 29.2859C365.037 29.1174 364.656 29.1174 364.338 29.2859L358.308 32.4712C357.505 32.8954 356.567 32.2102 356.72 31.3117L357.871 24.5651C357.932 24.2083 357.815 23.8442 357.557 23.5915L352.679 18.8135C352.029 18.1772 352.388 17.0685 353.285 16.9374L360.026 15.9531C360.383 15.901 360.691 15.676 360.851 15.3514L363.865 9.21312Z" fill="#E1FF00"/>
<path d="M363.865 69.9929C364.267 69.1754 365.427 69.1754 365.828 69.9929L368.843 76.1311C369.003 76.4558 369.311 76.6808 369.667 76.7329L376.409 77.7172C377.306 77.8483 377.665 78.957 377.015 79.5933L372.137 84.3713C371.879 84.624 371.762 84.9881 371.822 85.3449L372.974 92.0914C373.127 92.99 372.189 93.6752 371.386 93.251L365.356 90.0657C365.037 89.8972 364.656 89.8972 364.338 90.0657L358.308 93.251C357.505 93.6752 356.567 92.99 356.72 92.0914L357.871 85.3449C357.932 84.9881 357.815 84.624 357.557 84.3713L352.679 79.5933C352.029 78.957 352.388 77.8483 353.285 77.7172L360.026 76.7329C360.383 76.6808 360.691 76.4558 360.851 76.1311L363.865 69.9929Z" fill="#E1FF00"/>
<path d="M433.865 70.7528C434.267 69.9353 435.427 69.9353 435.828 70.7528L438.843 76.891C439.003 77.2157 439.311 77.4407 439.667 77.4927L446.409 78.4771C447.306 78.6082 447.665 79.7169 447.015 80.3532L442.137 85.1312C441.879 85.3839 441.762 85.7479 441.822 86.1047L442.974 92.8513C443.127 93.7499 442.189 94.4351 441.386 94.0109L435.356 90.8256C435.037 90.6571 434.656 90.6571 434.338 90.8256L428.308 94.0109C427.505 94.4351 426.567 93.7499 426.72 92.8513L427.871 86.1048C427.932 85.7479 427.815 85.3839 427.557 85.1312L422.679 80.3532C422.029 79.7169 422.388 78.6082 423.285 78.4771L430.026 77.4927C430.383 77.4407 430.691 77.2157 430.851 76.891L433.865 70.7528Z" fill="#E1FF00"/>
<path d="M433.865 9.21312C434.267 8.3956 435.427 8.3956 435.828 9.21312L438.843 15.3514C439.003 15.676 439.311 15.901 439.667 15.9531L446.409 16.9374C447.306 17.0685 447.665 18.1772 447.015 18.8135L442.137 23.5915C441.879 23.8442 441.762 24.2083 441.822 24.5651L442.974 31.3117C443.127 32.2102 442.189 32.8954 441.386 32.4712L435.356 29.2859C435.037 29.1174 434.656 29.1174 434.338 29.2859L428.308 32.4712C427.505 32.8954 426.567 32.2102 426.72 31.3117L427.871 24.5651C427.932 24.2083 427.815 23.8442 427.557 23.5915L422.679 18.8135C422.029 18.1772 422.388 17.0685 423.285 16.9374L430.026 15.9531C430.383 15.901 430.691 15.676 430.851 15.3514L433.865 9.21312Z" fill="#E1FF00"/>
<path d="M268.067 105.6C259.534 105.6 251.934 103.533 245.267 99.4C238.734 95.1333 233.601 89.2 229.867 81.6C226.267 73.8667 224.467 65 224.467 55C224.467 46.7333 225.534 39.2667 227.667 32.6C229.934 25.8 233.067 20 237.067 15.2C241.201 10.2667 246.067 6.53333 251.667 4C257.267 1.33334 263.467 0 270.267 0C278.934 0 286.534 2.13334 293.067 6.4C299.734 10.5333 304.867 16.4667 308.467 24.2C312.201 31.8 314.067 40.6 314.067 50.6C314.067 58.8667 312.934 66.4 310.667 73.2C308.534 79.8667 305.401 85.6667 301.267 90.6C297.267 95.4 292.467 99.1333 286.867 101.8C281.267 104.333 275.001 105.6 268.067 105.6ZM272.267 100C275.734 100 278.934 99.4 281.867 98.2C284.934 96.8667 287.667 95.0667 290.067 92.8C292.601 90.4 294.734 87.6 296.467 84.4C298.201 81.0667 299.534 77.4667 300.467 73.6C301.534 69.6 302.067 65.3333 302.067 60.8C302.067 54.8 301.467 49.0667 300.267 43.6C299.201 38.1333 297.601 33.0667 295.467 28.4C293.334 23.7333 290.734 19.7333 287.667 16.4C284.734 12.9333 281.401 10.2667 277.667 8.4C274.067 6.53334 270.201 5.60001 266.067 5.60001C262.601 5.60001 259.334 6.26667 256.267 7.6C253.334 8.8 250.601 10.6 248.067 13C245.667 15.2667 243.534 18 241.667 21.2C239.934 24.4 238.601 28.0667 237.667 32.2C236.867 36.2 236.467 40.4667 236.467 45C236.467 51 237.001 56.7333 238.067 62.2C239.267 67.5333 240.934 72.5333 243.067 77.2C245.201 81.8667 247.734 85.9333 250.667 89.4C253.601 92.7333 256.867 95.3333 260.467 97.2C264.201 99.0667 268.134 100 272.267 100Z" fill="white"/>
<path d="M217.597 31.4C215.33 25.1333 212.53 20.1333 209.197 16.4C205.997 12.5333 202.33 9.8 198.197 8.2C194.197 6.46667 189.797 5.60001 184.997 5.60001C180.33 5.60001 176.064 6.66667 172.197 8.8C168.33 10.8 164.997 13.7333 162.197 17.6C159.397 21.3333 157.197 25.7333 155.597 30.8C153.997 35.8667 153.197 41.3333 153.197 47.2C153.197 55.7333 154.73 63.6667 157.797 71C160.997 78.2 165.53 84.0667 171.397 88.6C177.397 93.1333 184.53 95.4 192.797 95.4C199.064 95.4 204.73 93.4 209.797 89.4C214.997 85.4 218.664 80.0667 220.797 73.4L223.397 74C221.664 83.3333 217.464 90.9333 210.797 96.8C204.264 102.533 196.397 105.4 187.197 105.4C178.53 105.4 170.73 103.2 163.797 98.8C156.864 94.4 151.397 88.4 147.397 80.8C143.397 73.2 141.397 64.5333 141.397 54.8C141.397 46.9333 142.464 39.6667 144.597 33C146.73 26.3333 149.73 20.5333 153.597 15.6C157.597 10.6667 162.197 6.86667 167.397 4.2C172.597 1.4 178.197 0 184.197 0C189.93 0 194.597 0.600003 198.197 1.8C201.93 3 204.797 4.06667 206.797 5C208.797 5.93333 210.264 6.2 211.197 5.8C212.264 5.26667 212.93 3.33333 213.197 0H215.597L220.397 31.4H217.597Z" fill="white"/>
<path d="M103.908 105.4C96.9746 105.4 90.7079 104.133 85.1079 101.6C79.5079 99.0667 74.7746 95.5333 70.9079 91C67.0412 86.4667 64.1079 81.1333 62.1079 75C60.1079 68.8667 59.1079 62.2 59.1079 55C59.1079 46.8667 60.1079 39.4667 62.1079 32.8C64.2412 26.1333 67.2412 20.3333 71.1079 15.4C74.9746 10.4667 79.6412 6.66667 85.1079 4C90.5746 1.33334 96.6412 0 103.308 0C111.041 0 117.575 2.00001 122.908 6.00001C128.241 10 132.175 15.2667 134.708 21.8C137.241 28.3333 138.041 35.4 137.108 43H69.1079L69.3079 37.4H125.708C125.975 32.8667 125.575 28.7333 124.508 25C123.441 21.1333 121.775 17.7333 119.508 14.8C117.241 11.8667 114.508 9.6 111.308 8C108.241 6.4 104.775 5.60001 100.908 5.60001C96.9079 5.60001 93.3079 6.26667 90.1079 7.6C86.9079 8.93333 84.1079 10.8667 81.7079 13.4C79.4412 15.8 77.5079 18.8 75.9079 22.4C74.3079 26 73.1079 30.1333 72.3079 34.8C71.5079 39.3333 71.1079 44.3333 71.1079 49.8C71.1079 58.6 72.5746 66.4667 75.5079 73.4C78.4412 80.3333 82.6412 85.7333 88.1079 89.6C93.7079 93.4667 100.308 95.4 107.908 95.4C114.441 95.4 120.175 93.5333 125.108 89.8C130.041 85.9333 133.375 80.9333 135.108 74.8L137.708 75.4C136.775 81.4 134.708 86.6667 131.508 91.2C128.308 95.6 124.375 99.0667 119.708 101.6C115.041 104.133 109.775 105.4 103.908 105.4Z" fill="white"/>
<path d="M50.4 0C55.0667 0 58.6 0.933337 61 2.8C63.5333 4.53333 64.8 6.73333 64.8 9.4C64.8 10.4667 64.5333 11.5333 64 12.6C63.4667 13.5333 62.8 14.3333 62 15C61.2 15.6667 60.1333 16 58.8 16C57.2 16 55.9333 15.6667 55 15C54.0667 14.3333 53.2 13.6 52.4 12.8C51.6 12 50.6667 11.2667 49.6 10.6C48.6667 9.93334 47.2 9.6 45.2 9.6C41.8667 9.6 38.7333 10.8667 35.8 13.4C32.8667 15.8 30.4667 19.1333 28.6 23.4C26.7333 27.5333 25.8 32.2667 25.8 37.6V87.2C25.8 90.4 26.6 92.8667 28.2 94.6C29.8 96.2 32.1333 97.4 35.2 98.2C38.4 98.8667 42.2 99.4 46.6 99.8V102.6H0V99.8C3.6 99.4 6.46667 98.7333 8.6 97.8C10.7333 96.8667 12.2667 95.5333 13.2 93.8C14.2667 92.0667 14.8 89.8667 14.8 87.2V21.6C14.8 17.8667 14.3333 15.1333 13.4 13.4C12.4667 11.6667 10.9333 10.6667 8.8 10.4C6.66667 10.1333 3.73333 10.4 0 11.2V8.4L23 0H25.8V23.6C27.1333 18.4 29 14.0667 31.4 10.6C33.9333 7.13334 36.8 4.53333 40 2.8C43.3333 0.933337 46.8 0 50.4 0Z" fill="white"/>
</svg>
